<svg width="302" height="91" viewBox="0 0 302 91" fill="none" xmlns="http://www.w3.org/2000/svg">
<path d="M69.384 4.872C69.64 6.088 69.64 7.368 69.384 8.712C69.256 9.352 69.128 9.992 69 10.632C68.936 11.208 68.84 11.816 68.712 12.456L68.616 12.84C67.72 16.808 66.696 21 65.544 25.416C64.456 29.768 63.464 33.896 62.568 37.8C61.8 41 61 44.52 60.168 48.36C59.336 52.2 58.472 55.72 57.576 58.92C57.256 60.008 56.904 61.096 56.52 62.184C56.2 63.272 55.784 64.36 55.272 65.448C54.824 66.408 54.28 67.272 53.64 68.04C53.064 68.744 52.392 69.256 51.624 69.576C50.856 69.96 50.024 70.088 49.128 69.96C48.296 69.896 47.368 69.512 46.344 68.808C44.808 67.72 43.656 66.216 42.888 64.296C42.184 62.376 41.448 60.616 40.68 59.016C40.424 58.568 40.04 57.576 39.528 56.04C39.016 54.504 38.472 52.84 37.896 51.048C37.32 49.192 36.744 47.432 36.168 45.768C35.656 44.04 35.208 42.76 34.824 41.928C34.248 43.336 33.672 44.936 33.096 46.728C32.52 48.52 31.976 50.28 31.464 52.008C30.952 53.736 30.472 55.304 30.024 56.712C29.64 58.056 29.352 59.048 29.16 59.688C28.648 60.968 28.072 62.376 27.432 63.912C26.856 65.448 26.12 66.76 25.224 67.848C24.392 68.936 23.368 69.64 22.152 69.96C20.936 70.344 19.496 69.992 17.832 68.904C16.552 68.136 15.656 67.048 15.144 65.64C14.824 64.744 14.504 63.88 14.184 63.048C13.864 62.216 13.608 61.352 13.416 60.456L11.496 53.256L7.56 37.8C7.048 35.816 6.536 33.8 6.024 31.752C5.576 29.64 5.032 27.464 4.392 25.224C4.072 24.136 3.784 23.08 3.528 22.056C3.336 20.968 3.112 19.816 2.856 18.6C2.664 17.32 2.408 15.88 2.088 14.28C1.832 12.68 1.512 10.824 1.128 8.712C1 8.008 0.904 7.368 0.84 6.792C0.84 6.152 0.904 5.512 1.032 4.872C1.16 3.912 1.608 3.08 2.376 2.376C2.696 2.056 3.08 1.8 3.528 1.608C3.976 1.416 4.456 1.256 4.968 1.128C5.736 0.871998 6.536 0.743998 7.368 0.743998C8.136 0.743998 8.936 0.999998 9.768 1.512C10.344 1.832 10.792 2.248 11.112 2.75999L12.264 4.776C12.392 5.224 12.52 5.64 12.648 6.024C12.776 6.344 12.904 6.696 13.032 7.08C13.16 7.528 13.256 7.944 13.32 8.328C13.384 8.648 13.448 8.968 13.512 9.288C14.088 12.616 14.792 15.848 15.624 18.984C16.456 22.12 17.224 25.128 17.928 28.008C18.184 29.16 18.504 30.6 18.888 32.328C19.272 33.992 19.656 35.752 20.04 37.608C20.424 39.4 20.808 41.128 21.192 42.792C21.576 44.456 21.96 45.768 22.344 46.728C23.176 43.848 24.008 40.968 24.84 38.088C25.736 35.208 26.696 32.296 27.72 29.352C28.232 27.816 28.744 26.44 29.256 25.224C29.832 23.944 30.472 22.888 31.176 22.056C31.88 21.224 32.68 20.68 33.576 20.424C34.472 20.168 35.528 20.264 36.744 20.712C37.832 21.16 38.792 22.12 39.624 23.592C40.456 25.064 41.192 26.568 41.832 28.104C42.408 29.512 42.952 31.016 43.464 32.616C44.04 34.152 44.584 35.688 45.096 37.224C45.672 38.696 46.216 40.104 46.728 41.448C47.24 42.792 47.752 43.944 48.264 44.904C48.456 44.2 48.68 43.304 48.936 42.216C49.192 41.128 49.448 39.976 49.704 38.76C50.024 37.48 50.312 36.232 50.568 35.016C50.824 33.8 51.08 32.68 51.336 31.656C52.168 28.2 53.032 24.744 53.928 21.288C54.824 17.768 55.688 14.312 56.52 10.92L57 9.288C57.128 8.968 57.192 8.648 57.192 8.328C57.256 7.944 57.352 7.528 57.48 7.08C57.608 6.696 57.736 6.344 57.864 6.024C57.992 5.64 58.12 5.224 58.248 4.776C58.376 4.456 58.504 4.136 58.632 3.816C58.824 3.432 59.048 3.07999 59.304 2.75999C59.496 2.43999 59.72 2.184 59.976 1.992C60.232 1.8 60.488 1.64 60.744 1.512C61.64 0.999998 62.408 0.743998 63.048 0.743998C63.88 0.743998 64.68 0.871998 65.448 1.128C66.472 1.32 67.4 1.736 68.232 2.376C68.872 3.016 69.256 3.848 69.384 4.872ZM84.6615 25.608C86.7735 24.584 88.9815 23.848 91.2855 23.4C93.5895 22.952 95.8615 22.856 98.1015 23.112C100.406 23.368 102.614 23.976 104.726 24.936C106.902 25.896 108.886 27.24 110.678 28.968C112.15 30.44 113.43 32.232 114.518 34.344C115.606 36.392 116.406 38.408 116.917 40.392C118.006 43.912 118.166 47.464 117.398 51.048C116.63 54.632 115.318 57.96 113.462 61.032C112.566 62.44 111.446 63.72 110.102 64.872C108.822 65.96 107.446 66.856 105.974 67.56C104.054 68.456 101.974 69.064 99.7335 69.384C97.4935 69.768 95.3175 69.864 93.2055 69.672C89.3655 69.48 85.9735 68.52 83.0295 66.792C80.1495 65.064 77.8135 62.856 76.0215 60.168C74.2935 57.48 73.1415 54.44 72.5655 51.048C72.0535 47.592 72.2775 44.072 73.2375 40.488C74.2615 36.648 75.7335 33.544 77.6535 31.176C79.6375 28.744 81.9735 26.888 84.6615 25.608ZM87.5415 38.472C86.5815 39.368 85.8455 40.488 85.3335 41.832C84.8215 43.176 84.5015 44.584 84.3735 46.056C84.2455 47.464 84.3415 48.904 84.6615 50.376C85.0455 51.784 85.6215 53.064 86.3895 54.216C87.0295 55.176 88.1815 55.976 89.8455 56.616C91.5095 57.256 93.2375 57.64 95.0295 57.768C97.0775 57.896 98.8695 57.352 100.406 56.136C101.942 54.856 103.094 53.288 103.862 51.432C104.694 49.576 105.078 47.56 105.014 45.384C104.95 43.208 104.374 41.224 103.286 39.432C102.518 38.152 101.43 37.224 100.022 36.648C98.6775 36.008 97.2375 35.688 95.7015 35.688C94.2295 35.624 92.7575 35.848 91.2855 36.36C89.8135 36.808 88.5655 37.512 87.5415 38.472ZM125.624 35.016C125.624 34.248 125.624 33.384 125.624 32.424C125.624 31.4 125.656 30.376 125.72 29.352C125.784 28.264 125.88 27.24 126.008 26.28C126.2 25.256 126.456 24.36 126.776 23.592C127.288 22.44 128.088 21.672 129.176 21.288C130.264 20.84 131.448 20.648 132.728 20.712C134.072 20.712 135.128 20.936 135.896 21.384C136.664 21.832 137.24 22.44 137.624 23.208C138.008 23.912 138.232 24.744 138.296 25.704C138.424 26.6 138.488 27.56 138.488 28.584C139.064 27.56 139.832 26.728 140.792 26.088C141.816 25.448 142.84 24.936 143.864 24.552C144.888 24.168 145.816 23.912 146.648 23.784C147.48 23.592 147.96 23.496 148.088 23.496C149.688 23.368 151.128 23.336 152.408 23.4C153.752 23.464 155.224 23.752 156.824 24.264C157.848 24.648 158.904 25.192 159.992 25.896C161.08 26.536 162.04 27.304 162.872 28.2C163.704 29.096 164.248 30.088 164.504 31.176C164.824 32.2 164.696 33.288 164.12 34.44C163.224 36.04 162.232 36.84 161.144 36.84C160.056 36.776 158.872 36.584 157.592 36.264C156.888 36.136 156.056 35.848 155.096 35.4C154.136 34.952 153.304 34.664 152.6 34.536C150.424 34.216 148.504 34.376 146.84 35.016C145.176 35.656 143.736 36.424 142.52 37.32C141.112 38.408 139.896 39.656 138.872 41.064V54.888C138.872 56.616 138.84 58.408 138.776 60.264C138.776 62.12 138.52 63.816 138.008 65.352C137.56 66.824 136.76 68.04 135.608 69C134.52 69.896 132.92 70.28 130.808 70.152C129.656 70.088 128.632 69.544 127.736 68.52C126.84 67.432 126.296 66.376 126.104 65.352C125.976 64.392 125.88 63.24 125.816 61.896C125.752 60.552 125.688 59.144 125.624 57.672C125.624 56.2 125.624 54.728 125.624 53.256C125.624 51.72 125.624 50.312 125.624 49.032V35.016ZM191.507 46.92C192.915 48.392 193.939 49.48 194.579 50.184C195.283 50.824 195.763 51.304 196.019 51.624C196.339 51.944 196.563 52.136 196.691 52.2C196.819 52.264 197.043 52.456 197.363 52.776C197.683 53.096 198.195 53.608 198.899 54.312C199.603 54.952 200.659 56.008 202.067 57.48C203.219 58.632 204.147 59.976 204.851 61.512C205.619 62.984 205.555 64.584 204.659 66.312C204.147 67.208 203.571 67.848 202.931 68.232C202.291 68.552 201.587 68.68 200.819 68.616C200.115 68.552 199.347 68.328 198.515 67.944C197.747 67.56 196.979 67.08 196.211 66.504C194.739 65.416 193.331 64.168 191.987 62.76C190.643 61.288 189.555 60.168 188.723 59.4C188.147 58.824 187.795 58.44 187.667 58.248C187.539 58.12 187.411 58.024 187.283 57.96C187.155 57.832 187.027 57.704 186.899 57.576C186.451 57.128 185.971 56.68 185.459 56.232C184.947 55.784 184.435 55.304 183.923 54.792V58.536C183.923 59.24 183.955 59.752 184.019 60.072C184.019 60.712 183.987 61.192 183.923 61.512C183.731 62.216 183.635 62.888 183.635 63.528C183.571 63.848 183.507 64.168 183.443 64.488C183.379 64.744 183.283 65.032 183.155 65.352C183.091 65.48 183.027 65.576 182.963 65.64C182.963 65.704 182.963 65.8 182.963 65.928C182.899 66.056 182.835 66.152 182.771 66.216C182.771 66.28 182.739 66.376 182.674 66.504C182.355 67.144 181.843 67.752 181.139 68.328C179.923 69.032 178.419 69.224 176.627 68.904C175.667 68.712 174.931 68.36 174.419 67.848C173.843 67.464 173.459 66.92 173.267 66.216C173.139 65.896 173.011 65.576 172.883 65.256C172.819 64.872 172.723 64.52 172.595 64.2C172.467 63.88 172.403 63.592 172.403 63.336C172.403 63.016 172.403 62.76 172.403 62.568V7.944C172.403 7.56 172.403 7.176 172.403 6.792C172.403 6.408 172.435 6.024 172.499 5.64C172.563 5.256 172.627 4.904 172.691 4.584C172.819 4.2 172.947 3.848 173.075 3.528C173.331 2.888 173.651 2.376 174.035 1.992C174.355 1.672 174.675 1.448 174.995 1.32C175.379 1.128 175.731 0.967999 176.051 0.839996C176.371 0.775997 176.723 0.743998 177.107 0.743998C177.555 0.679998 177.971 0.647999 178.355 0.647999C179.251 0.647999 180.147 0.903997 181.043 1.41599C181.875 1.99199 182.483 2.72799 182.867 3.62399C183.379 4.83999 183.635 6.02399 183.635 7.17599C183.699 7.816 183.763 8.808 183.827 10.152C183.891 11.432 183.923 12.392 183.923 13.032V13.416C183.987 15.528 184.019 17.544 184.019 19.464C184.019 21.384 184.019 23.464 184.019 25.704C183.955 27.944 183.923 30.088 183.923 32.136C183.923 34.12 183.923 36.104 183.923 38.088V39.144C184.435 38.632 184.947 38.152 185.459 37.704C185.971 37.256 186.451 36.776 186.899 36.264C187.155 36.072 187.411 35.848 187.667 35.592L188.723 34.536C189.555 33.704 190.643 32.584 191.987 31.176C193.331 29.704 194.739 28.424 196.211 27.336C197.811 26.184 199.347 25.48 200.819 25.224C202.355 24.968 203.635 25.736 204.659 27.528C205.555 29.256 205.619 30.888 204.851 32.424C204.147 33.896 203.219 35.272 202.067 36.552C200.659 38.024 199.603 39.112 198.899 39.816C198.195 40.456 197.683 40.936 197.363 41.256C197.043 41.512 196.819 41.672 196.691 41.736C196.563 41.8 196.339 41.992 196.019 42.312C195.763 42.568 195.283 43.048 194.579 43.752C193.939 44.392 192.915 45.448 191.507 46.92ZM236.034 52.104C234.818 51.336 233.442 50.728 231.906 50.28C230.434 49.832 228.898 49.416 227.298 49.032C225.762 48.648 224.258 48.232 222.786 47.784C221.314 47.272 219.97 46.568 218.754 45.672C216.13 43.688 214.594 41.256 214.146 38.376C213.762 35.432 214.402 32.488 216.066 29.544C216.962 28.008 218.146 26.76 219.618 25.8C221.09 24.776 222.69 24.008 224.418 23.496C226.21 22.92 228.034 22.6 229.89 22.536C231.746 22.472 233.506 22.568 235.17 22.824C236.258 23.016 237.41 23.304 238.626 23.688C239.842 24.008 240.962 24.456 241.986 25.032C243.074 25.608 244.034 26.344 244.866 27.24C245.762 28.072 246.402 29.128 246.786 30.408C247.042 31.24 247.074 32.04 246.882 32.808C246.754 33.576 246.434 34.216 245.922 34.728C245.474 35.24 244.866 35.624 244.098 35.88C243.394 36.136 242.626 36.2 241.794 36.072C240.834 35.88 239.938 35.592 239.106 35.208C238.274 34.824 237.442 34.408 236.61 33.96C235.778 33.512 234.914 33.128 234.018 32.808C233.186 32.488 232.29 32.328 231.33 32.328C229.858 32.264 228.642 32.52 227.682 33.096C226.722 33.672 226.05 34.376 225.666 35.208C225.346 36.04 225.378 36.936 225.762 37.896C226.21 38.856 227.106 39.688 228.45 40.392C229.666 41.032 231.01 41.544 232.482 41.928C233.954 42.312 235.394 42.696 236.802 43.08C238.274 43.464 239.682 43.912 241.026 44.424C242.434 44.936 243.682 45.64 244.77 46.536C246.882 48.264 248.162 50.28 248.61 52.584C249.122 54.888 248.994 57.16 248.226 59.4C247.458 61.64 246.114 63.624 244.194 65.352C242.338 67.08 240.13 68.232 237.57 68.808C235.714 69.192 233.698 69.384 231.522 69.384C229.41 69.384 227.298 69.16 225.186 68.712C223.138 68.264 221.154 67.56 219.234 66.6C217.378 65.64 215.81 64.424 214.53 62.952C213.634 61.928 213.154 60.776 213.09 59.496C213.09 58.152 213.346 57 213.858 56.04C214.434 55.016 215.234 54.312 216.258 53.928C217.282 53.544 218.434 53.768 219.714 54.6C220.738 55.304 221.954 56.008 223.362 56.712C224.77 57.352 226.178 57.864 227.586 58.248C228.994 58.632 230.338 58.824 231.618 58.824C232.962 58.824 234.114 58.536 235.074 57.96C236.482 57.064 237.218 56.04 237.282 54.888C237.346 53.672 236.93 52.744 236.034 52.104ZM300.748 26.184C301.324 27.08 301.58 28.04 301.516 29.064C301.516 30.536 301.26 31.816 300.748 32.904C300.62 33.224 300.428 33.64 300.172 34.152C299.98 34.664 299.756 35.208 299.5 35.784C299.308 36.36 299.084 36.904 298.828 37.416C298.572 37.928 298.38 38.312 298.252 38.568L298.06 39.048C297.164 41.032 296.3 42.952 295.468 44.808C294.636 46.664 293.708 48.648 292.684 50.76C291.66 52.808 290.668 54.824 289.708 56.808C288.812 58.728 287.916 60.616 287.02 62.472C286.764 62.984 286.54 63.496 286.348 64.008C286.156 64.456 285.9 64.936 285.58 65.448L280.972 75.336C280.14 77 279.34 78.632 278.572 80.232C277.868 81.832 277.068 83.432 276.172 85.032C275.98 85.352 275.788 85.64 275.596 85.896C275.468 86.216 275.34 86.536 275.212 86.856C274.764 87.624 274.092 88.36 273.196 89.064C272.364 89.832 271.468 90.248 270.508 90.312C268.78 90.44 267.276 89.928 265.996 88.776C265.228 88.328 264.62 87.688 264.172 86.856C263.916 86.28 263.788 85.544 263.788 84.648C263.852 84.264 263.884 83.88 263.884 83.496C263.948 83.176 264.012 82.856 264.076 82.536C264.204 82.216 264.3 81.896 264.364 81.576C264.428 81.256 264.524 81 264.652 80.808C264.844 80.296 265.004 80.04 265.132 80.04L272.14 64.872C271.82 64.168 271.5 63.464 271.18 62.76C270.86 61.992 270.572 61.32 270.316 60.744C269.484 58.76 268.588 56.68 267.628 54.504C266.732 52.264 265.804 50.056 264.844 47.88C263.884 45.64 262.892 43.464 261.868 41.352C260.844 39.24 259.82 37.224 258.796 35.304C258.412 34.664 258.06 33.992 257.74 33.288C257.42 32.52 257.164 31.784 256.972 31.08C256.78 30.312 256.716 29.544 256.78 28.776C256.844 28.008 257.132 27.24 257.644 26.472C258.156 25.512 258.828 24.84 259.66 24.456C260.492 24.008 261.356 23.816 262.252 23.88C263.212 23.88 264.108 24.072 264.94 24.456C265.772 24.84 266.444 25.352 266.956 25.992C268.044 27.144 268.908 28.424 269.548 29.832C270.188 31.24 270.796 32.68 271.372 34.152C272.588 36.712 273.836 39.4 275.116 42.216C276.396 45.032 277.676 47.784 278.956 50.472L283.948 39.912C284.46 38.888 284.908 37.896 285.292 36.936C285.74 35.976 286.188 35.048 286.636 34.152C287.148 33.064 287.628 31.944 288.076 30.792C288.588 29.64 289.164 28.584 289.804 27.624C289.932 27.368 290.06 27.144 290.188 26.952C290.316 26.76 290.444 26.536 290.572 26.28C291.148 25.512 291.66 24.904 292.108 24.456C292.428 24.2 292.684 24.008 292.876 23.88C293.132 23.688 293.42 23.56 293.74 23.496C294.188 23.368 294.604 23.304 294.988 23.304C295.436 23.24 295.852 23.24 296.236 23.304C296.876 23.496 297.644 23.784 298.54 24.168C299.5 24.552 300.236 25.224 300.748 26.184Z" fill="#D9D9D9"/>
</svg>
